<svg width="21" height="21" viewBox="0 0 21 21" fill="none" xmlns="http://www.w3.org/2000/svg">
    <path d="M11 20.25C12.3542 20.25 13.6497 19.9896 14.8867 19.4688C16.1237 18.9479 17.1849 18.2318 18.0703 17.3203C18.9557 16.4089 19.6654 15.3477 20.1992 14.1367C20.7331 12.9258 20.987 11.6302 20.9609 10.25C20.987 8.86979 20.7331 7.57422 20.1992 6.36328C19.6654 5.15234 18.9557 4.09115 18.0703 3.17969C17.1849 2.26823 16.1237 1.55208 14.8867 1.03125C13.6497 0.510417 12.3542 0.25 11 0.25C9.61979 0.25 8.32422 0.510417 7.11328 1.03125C5.90234 1.55208 4.84115 2.26823 3.92969 3.17969C3.01823 4.09115 2.30208 5.15234 1.78125 6.36328C1.26042 7.57422 0.986979 8.86979 0.960938 10.25C0.986979 11.6302 1.26042 12.9258 1.78125 14.1367C2.30208 15.3477 3.01823 16.4089 3.92969 17.3203C4.84115 18.2318 5.90234 18.9479 7.11328 19.4688C8.32422 19.9896 9.61979 20.25 11 20.25ZM14.0078 4.9375H7.95312C8.13542 4.625 8.29818 4.31901 8.44141 4.01953C8.58464 3.72005 8.76042 3.42708 8.96875 3.14062C9.17708 2.85417 9.38542 2.56771 9.59375 2.28125C9.80208 1.99479 10.0365 1.72135 10.2969 1.46094H10.4727L10.5654 1.45605L10.6484 1.44141C10.7005 1.42839 10.7591 1.42188 10.8242 1.42188H11.1758C11.2148 1.42188 11.2669 1.42839 11.332 1.44141C11.3971 1.45443 11.4492 1.46094 11.4883 1.46094H11.625C11.9115 1.72135 12.1523 1.99479 12.3477 2.28125C12.543 2.56771 12.7448 2.85417 12.9531 3.14062C13.1615 3.42708 13.3438 3.72005 13.5 4.01953C13.6562 4.31901 13.8255 4.625 14.0078 4.9375ZM18.0703 4.9375H15.2969C15.1406 4.67708 15.0039 4.41016 14.8867 4.13672C14.7695 3.86328 14.6263 3.58984 14.457 3.31641C14.2878 3.04297 14.125 2.78255 13.9688 2.53516C13.8125 2.28776 13.6302 2.03385 13.4219 1.77344C13.9167 1.90365 14.3724 2.07292 14.7891 2.28125C15.2057 2.48958 15.6159 2.73047 16.0195 3.00391C16.4232 3.27734 16.7878 3.57682 17.1133 3.90234C17.4388 4.22786 17.7578 4.57292 18.0703 4.9375ZM6.70312 4.9375H3.92969C4.24219 4.57292 4.5612 4.22786 4.88672 3.90234C5.21224 3.57682 5.57031 3.28385 5.96094 3.02344C6.35156 2.76302 6.75521 2.52865 7.17188 2.32031C7.48438 2.16406 7.81152 2.02979 8.15332 1.91748L8.45 1.828L8.30035 2.05122C8.19039 2.21325 8.07465 2.38108 7.95312 2.55469C7.77083 2.8151 7.61458 3.07552 7.48438 3.33594C7.35417 3.59635 7.21094 3.86328 7.05469 4.13672C6.89844 4.41016 6.78125 4.67708 6.70312 4.9375ZM5.6875 9.66406H2.17188C2.22396 9.35156 2.26953 9.03906 2.30859 8.72656C2.34766 8.41406 2.41927 8.10807 2.52344 7.80859C2.6276 7.50911 2.72526 7.22266 2.81641 6.94922C2.90755 6.67578 3.04427 6.40885 3.22656 6.14844H6.23438C6.18229 6.4349 6.11068 6.72135 6.01953 7.00781C5.92839 7.29427 5.86979 7.58073 5.84375 7.86719C5.81771 8.15365 5.77865 8.44661 5.72656 8.74609C5.67448 9.04557 5.66146 9.35156 5.6875 9.66406ZM15.1016 9.66406H6.85938C6.83333 9.35156 6.84635 9.04557 6.89844 8.74609C6.95052 8.44661 6.99609 8.15365 7.03516 7.86719C7.07422 7.58073 7.13932 7.28776 7.23047 6.98828C7.32161 6.6888 7.40625 6.40885 7.48438 6.14844H14.4766C14.5286 6.40885 14.6003 6.6888 14.6914 6.98828C14.7826 7.28776 14.8542 7.58073 14.9062 7.86719C14.9583 8.15365 15.0039 8.44661 15.043 8.74609C15.082 9.04557 15.1016 9.35156 15.1016 9.66406ZM19.7891 9.66406H16.3125C16.2604 9.35156 16.2279 9.04557 16.2148 8.74609C16.2018 8.44661 16.1628 8.15365 16.0977 7.86719C16.0326 7.58073 15.974 7.29427 15.9219 7.00781C15.8698 6.72135 15.7917 6.4349 15.6875 6.14844H18.8125C18.9427 6.40885 19.0664 6.67578 19.1836 6.94922C19.3008 7.22266 19.3984 7.50911 19.4766 7.80859C19.5547 8.10807 19.6263 8.41406 19.6914 8.72656C19.7565 9.03906 19.7891 9.35156 19.7891 9.66406ZM6.23438 14.3516H3.22656C3.04427 14.0911 2.90755 13.8242 2.81641 13.5508C2.72526 13.2773 2.6276 12.9909 2.52344 12.6914C2.41927 12.3919 2.34766 12.0859 2.30859 11.7734C2.26953 11.4609 2.22396 11.1484 2.17188 10.8359H5.6875C5.66146 11.1484 5.67448 11.4544 5.72656 11.7539C5.77865 12.0534 5.82422 12.3464 5.86328 12.6328C5.90234 12.9193 5.96094 13.2057 6.03906 13.4922C6.11719 13.7786 6.18229 14.0651 6.23438 14.3516ZM14.4766 14.3516H7.48438C7.40625 14.0911 7.32812 13.8112 7.25 13.5117C7.17188 13.2122 7.10677 12.9193 7.05469 12.6328C7.0026 12.3464 6.95052 12.0534 6.89844 11.7539C6.84635 11.4544 6.83333 11.1484 6.85938 10.8359H15.1016C15.1016 11.1484 15.082 11.4544 15.043 11.7539C15.0039 12.0534 14.9583 12.3464 14.9062 12.6328C14.8542 12.9193 14.7826 13.2122 14.6914 13.5117C14.6003 13.8112 14.5286 14.0911 14.4766 14.3516ZM18.7734 14.3516H15.6875L15.9219 13.4922C16 13.2057 16.0586 12.9193 16.0977 12.6328C16.1367 12.3464 16.1758 12.0534 16.2148 11.7539C16.2539 11.4544 16.2734 11.1484 16.2734 10.8359H19.8281C19.776 11.1484 19.7305 11.4609 19.6914 11.7734C19.6523 12.0859 19.5807 12.3919 19.4766 12.6914C19.3724 12.9909 19.2747 13.2773 19.1836 13.5508C19.0924 13.8242 18.9557 14.0911 18.7734 14.3516ZM8.5 18.7266C8.05729 18.5703 7.61458 18.388 7.17188 18.1797C6.72917 17.9714 6.32552 17.737 5.96094 17.4766C5.59635 17.2161 5.23828 16.9232 4.88672 16.5977C4.53516 16.2721 4.22917 15.9271 3.96875 15.5625H6.70312C6.78125 15.8229 6.89844 16.0898 7.05469 16.3633C7.21094 16.6367 7.35417 16.9036 7.48438 17.1641C7.61458 17.4245 7.77083 17.6849 7.95312 17.9453L8.5 18.7266ZM11.1758 19.0781H10.8242L10.7314 19.0732L10.6484 19.0586C10.5964 19.0456 10.5378 19.0391 10.4727 19.0391H10.2969C10.0625 18.7786 9.83464 18.5052 9.61328 18.2188C9.39193 17.9323 9.1901 17.6458 9.00781 17.3594C8.82552 17.0729 8.64323 16.7799 8.46094 16.4805C8.27865 16.181 8.1224 15.875 7.99219 15.5625H13.9688C13.8385 15.875 13.6823 16.181 13.5 16.4805C13.3177 16.7799 13.1354 17.0729 12.9531 17.3594C12.7708 17.6458 12.5625 17.9323 12.3281 18.2188C12.0938 18.5052 11.8724 18.7786 11.6641 19.0391H11.4883C11.4492 19.0391 11.3971 19.0456 11.332 19.0586C11.2669 19.0716 11.2148 19.0781 11.1758 19.0781ZM13.4609 18.7266H13.4219C13.6302 18.4661 13.8125 18.2122 13.9688 17.9648C14.125 17.7174 14.2878 17.457 14.457 17.1836C14.6263 16.9102 14.7695 16.6367 14.8867 16.3633C15.0039 16.0898 15.1406 15.8229 15.2969 15.5625H18.0312C17.7708 15.9271 17.4648 16.2721 17.1133 16.5977C16.7617 16.9232 16.3971 17.2227 16.0195 17.4961C15.6419 17.7695 15.2318 18.0104 14.7891 18.2188C14.3464 18.4271 13.9036 18.5964 13.4609 18.7266Z" fill="#5EAFE1"/>
</svg>
