<svg width="15" height="13" viewBox="0 0 15 13" fill="none" xmlns="http://www.w3.org/2000/svg">
<path d="M13.4473 3.32812C14.0332 2.88867 14.5605 2.36133 14.9707 1.74609C14.4434 1.98047 13.8281 2.15625 13.2129 2.21484C13.8574 1.83398 14.3262 1.24805 14.5605 0.515625C13.9746 0.867188 13.3008 1.13086 12.627 1.27734C12.041 0.662109 11.25 0.310547 10.3711 0.310547C8.67188 0.310547 7.29492 1.6875 7.29492 3.38672C7.29492 3.62109 7.32422 3.85547 7.38281 4.08984C4.83398 3.94336 2.54883 2.71289 1.02539 0.867188C0.761719 1.30664 0.615234 1.83398 0.615234 2.41992C0.615234 3.47461 1.14258 4.41211 1.99219 4.96875C1.49414 4.93945 0.996094 4.82227 0.585938 4.58789V4.61719C0.585938 6.11133 1.64062 7.3418 3.04688 7.63477C2.8125 7.69336 2.51953 7.75195 2.25586 7.75195C2.05078 7.75195 1.875 7.72266 1.66992 7.69336C2.05078 8.92383 3.19336 9.80273 4.54102 9.83203C3.48633 10.6523 2.16797 11.1504 0.732422 11.1504C0.46875 11.1504 0.234375 11.1211 0 11.0918C1.34766 11.9707 2.95898 12.4688 4.7168 12.4688C10.3711 12.4688 13.4473 7.81055 13.4473 3.73828C13.4473 3.5918 13.4473 3.47461 13.4473 3.32812Z" fill="white"/>
</svg>
