<?xml version="1.0" encoding="UTF-8" standalone="no"?><!DOCTYPE svg PUBLIC "-//W3C//DTD SVG 1.1//EN" "http://www.w3.org/Graphics/SVG/1.1/DTD/svg11.dtd"><svg width="100%" height="100%" viewBox="0 0 5624 1108" version="1.1" xmlns="http://www.w3.org/2000/svg" xmlns:xlink="http://www.w3.org/1999/xlink" xml:space="preserve" xmlns:serif="http://www.serif.com/" style="fill-rule:evenodd;clip-rule:evenodd;stroke-linecap:round;stroke-linejoin:round;stroke-miterlimit:1.5;"><rect x="4749.14" y="5.274" width="869.462" height="1097.29" style="fill:#0d106e;stroke:#ee67ba;stroke-width:10.29px;"/><rect id="Artboard1" x="0" y="0" width="5623.91" height="1107.67" style="fill:none;"/><clipPath id="_clip1"><rect x="0" y="0" width="5623.91" height="1107.67"/></clipPath><g clip-path="url(#_clip1)"><rect x="1036.58" y="5.274" width="3712.56" height="1097.29" style="fill:#0d106e;stroke:#ee67ba;stroke-width:10.29px;"/><rect x="5.26" y="5.274" width="1031.32" height="1097.29" style="fill:#0d106e;stroke:#ee67ba;stroke-width:10.29px;"/><path id="logo" d="M149.071,553.93l371.983,-371.632l371.718,371.729l-371.718,371.509l-371.983,-371.606Zm136.873,-110.885c-15.707,17.667 -48.583,60.681 -48.583,110.885c0,50.401 33.134,93.555 48.767,111.092l80.416,80.429l0.378,-0.369c32.193,-31.461 85.71,-72.81 146.721,-75.959c-15.36,17.114 -49.233,60.629 -49.233,111.551c0,50.923 33.873,94.437 49.233,111.552l7.411,7.762l7.412,-7.762c15.359,-17.115 49.232,-60.629 49.232,-111.552c0,-50.922 -33.873,-94.437 -49.232,-111.551c61.25,3.161 114.946,44.822 147.099,76.328l82.312,-82.326l0.191,-0.219c16.275,-18.69 46.955,-60.478 46.955,-108.976c0,-48.687 -30.92,-90.613 -47.146,-109.194l-81.929,-81.943l-0.377,0.37c-32.161,31.503 -85.857,73.162 -147.105,76.324c15.359,-17.115 49.232,-60.629 49.232,-111.552c0,-50.922 -33.873,-94.437 -49.232,-111.551l-7.412,-8.511l-7.411,8.511c-15.36,17.114 -49.233,60.629 -49.233,111.551c0,50.923 33.873,94.437 49.233,111.552c-61.489,-3.174 -115.365,-45.148 -147.483,-76.694l-80.216,80.252Zm3408.06,183.327l-12.475,-22.456c103.13,-12.475 156.359,-64.872 156.359,-153.864c0,-103.962 -68.2,-154.695 -210.42,-153.864l-234.538,1.664l-69.863,-1.664l9.149,331.847l-9.149,207.924l35.763,-1.663l35.763,1.663l-8.317,-228.716l232.044,0l29.109,46.575l98.14,184.636l82.338,-2.495l-133.903,-209.587Zm660.374,-49.902l-132.24,-280.282l-40.753,1.664l-42.416,-1.664l-123.091,262.816l-137.23,276.955l79.843,0l60.714,-138.893l335.173,0l62.377,138.893l68.2,0l-130.577,-259.489Zm-2031.84,259.489l-6.653,-207.924l0,-1.663l90.655,-129.745l163.844,-201.27l-102.299,0l-105.625,159.685l-75.685,100.636l-75.684,-98.972l-108.121,-161.349l-93.15,0l157.191,198.775l88.992,132.24l0,1.663l-4.991,207.924l35.763,-1.663l35.763,1.663Zm321.867,0l70.694,-1.663l178.815,1.663c182.973,0 313.549,-80.674 313.549,-276.955c0,-178.814 -124.754,-262.816 -292.757,-262.816l-199.607,1.664l-70.694,-1.664l9.149,331.847l-9.149,207.924Zm-1205.13,0l-9.149,-207.924l0.832,-38.258l438.304,0l0.831,38.258l-9.148,207.924l35.763,-1.663l35.763,1.663l-9.149,-207.924l9.149,-331.847l-35.763,1.664l-35.763,-1.664l5.822,221.232l-433.314,0l5.822,-221.232l-35.763,1.664l-35.763,-1.664l9.148,331.847l-9.148,207.924l35.763,-1.663l35.763,1.663Zm1475.43,-469.077c153.032,0 241.192,67.368 241.192,190.459c0,135.567 -88.991,207.092 -252.004,207.092l-191.29,0l-5.822,-136.398l7.485,-261.153l200.439,0Zm2229.9,283.908l0,-196.382l-19.638,0l0,-19.638l-19.638,0l0,-19.638l-157.106,0l0,274.934l157.106,0l0,-19.638l19.638,0l0,-19.638l19.638,0Zm98.191,-137.467l19.638,0l0,19.638l19.638,0l0,39.276l-19.638,0l0,19.638l-19.638,0l0,39.277l-19.639,0l0,58.914l39.277,0l0,-39.276l19.638,0l0,-39.277l19.638,0l0,-19.638l39.276,0l0,19.638l19.638,0l0,39.277l19.639,0l0,39.276l39.276,0l0,-58.914l-19.638,0l0,-39.277l-19.638,0l0,-19.638l-19.639,0l0,-39.276l19.639,0l0,-19.638l19.638,0l0,-39.277l19.638,0l0,-58.914l-39.276,0l0,39.276l-19.639,0l0,39.276l-19.638,0l0,19.639l-39.276,0l0,-19.639l-19.638,0l0,-39.276l-19.638,0l0,-39.276l-39.277,0l0,58.914l19.639,0l0,39.277Zm-4941.12,-70.935c99.279,5.25 178.659,111.542 178.659,111.542c0,0 -79.38,106.292 -178.659,111.543c15.454,-17.257 49.152,-60.715 49.152,-111.543c0,-50.827 -33.698,-94.285 -49.152,-111.542Zm439.034,0c-15.454,17.257 -49.152,60.715 -49.152,111.542c0,50.828 33.698,94.286 49.152,111.543c-99.279,-5.251 -178.659,-111.543 -178.659,-111.543c0,0 79.38,-106.292 178.659,-111.542Zm4344.98,31.658l19.639,0l0,157.106l-19.639,0l0,19.638l-98.19,0l0,-196.382l98.19,0l0,19.638Zm-762.911,153.157l-272.797,0l18.298,-41.584l113.11,-229.549l126.418,238.697l14.971,32.436Zm-534.788,-176.319c0,32.436 -12.476,54.892 -38.258,68.199c-25.783,14.139 -73.19,20.792 -140.557,20.792l-221.231,0l4.99,-173.824l216.241,0c70.694,0 118.933,5.822 143.052,18.297c24.119,12.476 35.763,34.931 35.763,66.536Z" style="fill:#52b2ed;"/></g></svg>