<?xml version="1.0" encoding="UTF-8" standalone="no"?><!DOCTYPE svg PUBLIC "-//W3C//DTD SVG 1.1//EN" "http://www.w3.org/Graphics/SVG/1.1/DTD/svg11.dtd"><svg width="100%" height="100%" viewBox="0 0 156 114" version="1.1" xmlns="http://www.w3.org/2000/svg" xmlns:xlink="http://www.w3.org/1999/xlink" xml:space="preserve" xmlns:serif="http://www.serif.com/" style="fill-rule:evenodd;clip-rule:evenodd;stroke-linecap:round;stroke-linejoin:round;"><g><path d="M78.71,69.575l0,-5.668l9.288,0l0,14.015l-13.152,0c-3.219,0 -6.13,-0.537 -8.733,-1.611c-2.603,-1.087 -4.658,-2.711 -6.165,-4.872c-1.493,-2.161 -2.24,-4.808 -2.24,-7.94c0,-2.199 0.445,-4.16 1.336,-5.881c0.904,-1.734 2.151,-3.171 3.74,-4.31c1.589,-1.151 3.411,-2.005 5.466,-2.562c2.069,-0.569 4.267,-0.854 6.596,-0.854l13.152,0l0,8.347l-9.288,0c-2.083,0 -3.624,0.058 -4.624,0.175c-1,0.116 -1.89,0.31 -2.671,0.582c-0.781,0.272 -1.473,0.744 -2.076,1.417c-0.603,0.673 -0.952,1.864 -1.048,3.572c0.069,1.656 0.418,2.84 1.048,3.552c0.63,0.712 1.398,1.184 2.302,1.417c0.904,0.233 1.835,0.395 2.794,0.485c0.959,0.091 2.384,0.136 4.275,0.136l0,0Z" style="fill:#f653a2;fill-rule:nonzero;"/><path d="M78.71,98.875l9.288,0l0,8.347l-13.152,0c-3.219,0 -6.13,-0.537 -8.733,-1.611c-2.603,-1.087 -4.658,-2.711 -6.165,-4.872c-1.493,-2.162 -2.24,-4.808 -2.24,-7.94c0,-2.2 0.445,-4.16 1.336,-5.881c0.904,-1.735 2.151,-3.171 3.74,-4.31c1.589,-1.152 3.411,-2.006 5.466,-2.562c2.069,-0.57 4.267,-0.854 6.596,-0.854l13.152,0l0,8.347l-9.288,0c-2.083,0 -3.624,0.058 -4.624,0.174c-1,0.117 -1.89,0.311 -2.671,0.583c-0.781,0.271 -1.473,0.744 -2.076,1.417c-0.603,0.673 -0.952,1.863 -1.048,3.571c0.069,1.657 0.418,2.841 1.048,3.553c0.63,0.712 1.398,1.184 2.302,1.417c0.904,0.233 1.835,0.395 2.794,0.485c0.959,0.091 2.384,0.136 4.275,0.136l0,0Z" style="fill:#f653a2;fill-rule:nonzero;"/><g><path d="M89.491,22.604l-15.593,-21.666l-13.673,21.08m-10.255,15.81c-16.332,25.179 -32.664,50.357 -48.995,75.536l153.837,0c-18.241,-25.345 -37.524,-52.137 -55.297,-76.832" style="fill:none;fill-rule:nonzero;stroke:#f653a2;stroke-width:1.42px;"/><path d="M44.879,33.107c12.318,-12.203 25.409,-17.258 39.573,-12.381c6.212,2.139 12.631,6.187 19.281,12.381c-20.937,15.524 -40.479,14.628 -58.854,0Z" style="fill:none;fill-rule:nonzero;stroke:#f653a2;stroke-width:1.42px;stroke-linecap:butt;stroke-linejoin:miter;"/><path d="M74.752,19.795c5.574,6.83 7.009,13.494 -0.192,23.772c-7.619,-11.738 -4.298,-17.123 0.192,-23.772Z" style="fill:none;fill-rule:nonzero;stroke:#f653a2;stroke-width:1.13px;stroke-linecap:butt;stroke-linejoin:miter;"/></g></g></svg>