<svg width="19" height="13" viewBox="0 0 19 13" fill="none" xmlns="http://www.w3.org/2000/svg">
<path d="M4.47186 10.2021C8.3827 11.7283 11.7108 12.0256 15.4823 9.64996C15.4547 9.69142 14.7086 10.7967 12.7468 11.3631C13.1612 11.9296 13.7277 12.5789 13.7277 12.5789C14.9849 12.5789 16.2146 12.2197 17.2783 11.5289C18.1073 10.9762 18.577 10.023 18.4803 9.02824C18.3145 7.32888 17.9138 5.67099 17.2922 4.08221C16.5047 2.00986 14.6119 0.572998 12.4152 0.365747C12.2218 0.351924 12.0836 0.351924 12.0007 0.351924L11.7797 0.572958C14.308 1.29139 15.5652 2.41046 15.5928 2.45192C11.7106 0.490065 7.12377 0.462461 3.21387 2.36903C3.21387 2.36903 4.4573 1.13942 7.20662 0.490065L7.04083 0.32428C6.75069 0.32428 6.47437 0.351924 6.18426 0.39335C4.15333 0.738742 2.45402 2.13413 1.72176 4.05453C1.08623 5.71242 0.671764 7.4532 0.519801 9.22163C0.436908 10.1611 0.879016 11.0868 1.65269 11.6256C2.67505 12.3026 3.89083 12.6618 5.12044 12.6618C5.12044 12.6618 5.6178 12.0124 6.11519 11.4322C4.25005 10.8795 3.49019 9.77428 3.47637 9.73281L3.82738 9.91205C4.03722 10.0193 4.25235 10.1164 4.47186 10.2021ZM6.64019 9.0006C5.74216 8.97295 5.03755 8.2131 5.06519 7.30124C5.09284 6.44467 5.78362 5.75388 6.64019 5.72624C7.53823 5.75388 8.24284 6.51374 8.21519 7.4256C8.17373 8.28221 7.49676 8.97299 6.64019 9.0006ZM12.277 9.0006C11.379 8.97295 10.6744 8.2131 10.702 7.30124C10.7297 6.44467 11.4204 5.75388 12.277 5.72624C13.175 5.75388 13.8797 6.51374 13.852 7.4256C13.8244 8.28221 13.1336 8.97299 12.277 9.0006Z" fill="white"/>
</svg>
